# xmcd CD database file
#
# Track frame offsets:
#	150
#	15328
#	30635
#	42327
#	56481
#	67243
#	82501
#	93904
#	109608
#	126977
#	140912
#	154700
#	171522
#	183088
#	199513
#	214872
#	229939
#	248729
#	264882
#	282798
#	297050
#
# Disc length: 4253 seconds
#
# Revision: 0
# Processed by: cddbd v1.5.2PL0 Copyright (c) Steve Scherf et al.
# Submitted via: CDex 1.70beta2
#
DISCID=20109b15
DTITLE=Van Shelton, Ricky - USA - 16 Biggest Hits - Your Man
DYEAR=1900
DGENRE=Country
TTITLE0=Somebody Lied
TTITLE1=Life Turnede Her That Way
TTITLE2=Don't We All Have the Right
TTITLE3=I'll Leave This World Loving You
TTITLE4=From a Jack To A King
TTITLE5=Living Proof
TTITLE6=I.ve Cried My Last Tear For You
TTITLE7=I Am A Simple Man
TTITLE8=Keep It Between the Lines
TTITLE9=Statue of A Fool
TTITLE10=I Meant Every Word He Said
TTITLE11=Backroads
TTITLE12=(I Got)A Hole In My Pocket
TTITLE13=Life's Little Ups and Downs
TTITLE14=Crime of Passion
TTITLE15=Wild Man
TTITLE16=Josh Turner - No Rush
TTITLE17=Josh Turner - Your Man
TTITLE18=Josh Turner - Loretta Lynn's Lincoln
TTITLE19=Josh Turner - Lord Have Mercy On A Country Boy
TTITLE20=Josh Turner - Way Down South
EXTD=
EXTT0=
EXTT1=
EXTT2=
EXTT3=
EXTT4=
EXTT5=
EXTT6=
EXTT7=
EXTT8=
EXTT9=
EXTT10=
EXTT11=
EXTT12=
EXTT13=
EXTT14=
EXTT15=
EXTT16=
EXTT17=
EXTT18=
EXTT19=
EXTT20=
PLAYORDER=
